HIERARCHY
ROOT pelvis
{
  OFFSET 0 100 0
  CHANNELS 6 Xposition Yposition Zposition Zrotation Xrotation Yrotation
  JOINT pelvis_right_femur
  {
    OFFSET -10.78128 -3.44521 -0.5502486
    CHANNELS 3 Zrotation Xrotation Yrotation
    JOINT right_femur_tibia
    {
      OFFSET -0.8047443 -44.0398 -0.1307829
      CHANNELS 3 Zrotation Xrotation Yrotation
      JOINT right_tibia_foot
      {
        OFFSET 3.006224 -47.83518 -5
        CHANNELS 3 Zrotation Xrotation Yrotation
        End Site
        {
          OFFSET 0 -5 15
        }
      }
    }
  }
  JOINT pelvis_left_femur
  {
    OFFSET 10.78128 -3.44521 -0.5502486
    CHANNELS 3 Zrotation Xrotation Yrotation
    JOINT left_femur_tibia
    {
      OFFSET 0.8047443 -44.0398 -0.1307829
      CHANNELS 3 Zrotation Xrotation Yrotation
      JOINT left_tibia_foot
      {
        OFFSET -4.370144 -48.10324 -4.275266
        CHANNELS 3 Zrotation Xrotation Yrotation
        End Site
        {
          OFFSET 0 -5 15
        }
      }
    }
  }
  JOINT pelvis_spine1
  {
    OFFSET 0 6.468898 -3.129235
    CHANNELS 3 Zrotation Xrotation Yrotation
    JOINT spine1
    {
      OFFSET 0 23.15396 4.99043
      CHANNELS 3 Zrotation Xrotation Yrotation
      JOINT spine2
      {
        OFFSET 0 20.79997 -5.064912
        CHANNELS 3 Zrotation Xrotation Yrotation
        JOINT neck
        {
          OFFSET 0 14.38658 9.616178
          CHANNELS 3 Zrotation Xrotation Yrotation
          End Site
          {
            OFFSET 0 20 0
          }
        }
      }
      JOINT right_manubrium
      {
        OFFSET -5.722621 16.35077 3.967754
        CHANNELS 3 Zrotation Xrotation Yrotation
        JOINT right_clavicle
        {
          OFFSET -13.16364 1.694482 -4.693211
          CHANNELS 3 Zrotation Xrotation Yrotation
          JOINT right_humerus
          {
            OFFSET -28.5034 -0.3100689 -2.792744
            CHANNELS 3 Zrotation Xrotation Yrotation
            JOINT right_radius
            {
              OFFSET -25.15693 0.02248979 -1.271978
              CHANNELS 3 Zrotation Xrotation Yrotation
              End Site
              {
                OFFSET -15 0 0
              }
            }
          }
        }
      }
      JOINT left_manubrium
      {
        OFFSET 5.722621 16.35077 3.967754
        CHANNELS 3 Zrotation Xrotation Yrotation
        JOINT left_clavicle
        {
          OFFSET 13.16364 1.694482 -4.693211
          CHANNELS 3 Zrotation Xrotation Yrotation
          JOINT left_humerus
          {
            OFFSET 29.39168 -1.063119 -2.237045
            CHANNELS 3 Zrotation Xrotation Yrotation
            JOINT left_radius
            {
              OFFSET 24.59957 -0.9528479 0.9047498
              CHANNELS 3 Zrotation Xrotation Yrotation
              End Site
              {
                OFFSET 15 -0 -0
              }
            }
          }
        }
      }
    }
  }
}
MOTION
Frames: 7
Frame Time: 0.0416666666667
-431.5141 104.1321 3016.484 -3.364475 -8.254502 -25.13803 5.366769 7.853489 3.33313 -0 11.94513 -0 -4.331986 -11.04295 -2.840856 0.4800521 -17.43807 -3.769221 -0 44.93579 -0 -4.105123 -5.738383 18.5512 -2.337514 0.07972574 5.059987 0.8501347 10.19965 -4.624909 1.816172 22.91897 4.98693 2.459447 -17.52141 6.556992 4.145231 -17.20698 11.65195 81.50071 32.26322 -8.326248 -0 0 14.20714 -19.68776 11.90305 12.95907 4.402454 -17.90999 -2.790693 -89.05126 18.45813 17.46658 0 0 -10.20396 7.054612 11.44315 3.932193
-433.4737 103.5427 3021.802 -3.11161 -7.49715 -25.99287 4.828285 11.36234 2.985185 -0 10.67178 -0 -3.626086 -13.42864 -2.073662 1.434116 -21.64682 -3.078781 -0 35.77622 -0 -3.617934 -6.013153 18.82508 -2.338493 0.1362186 5.437717 0.5929361 10.19276 -4.235926 1.781753 22.9691 4.90813 2.538188 -17.36429 6.313922 4.003056 -17.81261 11.65018 80.8069 31.45461 -7.096776 -0 0 15.46702 -20.21502 11.31346 13.34961 4.294557 -17.45247 -2.797483 -89.9952 18.59176 18.9773 0 0 -8.5902 6.291085 11.23004 4.754645
-435.42 102.6096 3027.406 -2.772568 -6.721614 -26.71009 4.117509 14.4652 2.695253 -0 10.75267 -0 -3.035039 -14.62519 -1.395197 1.944918 -24.27551 -2.860078 -0 27.3763 -0 -3.394134 -6.217888 18.96107 -2.337091 0.1806367 5.764651 0.3607187 10.18387 -3.873953 1.763171 23.02606 4.838316 2.605526 -17.22594 6.122557 3.874784 -18.34907 11.64859 80.20998 30.76529 -5.979234 -0 0 16.57275 -20.66327 10.82554 13.6872 4.203955 -17.03822 -2.792691 -90.85659 18.64652 20.3284 0 0 -7.108747 5.712755 11.10952 5.364981
-437.4144 101.5551 3033.36 -2.412979 -6.097182 -27.27878 3.279151 17.00918 2.558154 -0 12.618 -0 -2.5564 -14.33437 -0.8416019 1.881483 -25.41422 -3.179106 -0 20.89704 -0 -3.461324 -6.369243 19.06729 -2.336124 0.2152049 6.022289 0.1644362 10.17065 -3.558621 1.758546 23.08968 4.781272 2.662903 -17.10499 5.98295 3.768902 -18.78098 11.64585 79.72716 30.22491 -5.027445 -0 0 17.46183 -21.01781 10.44538 13.95742 4.137539 -16.6901 -2.78092 -91.58012 18.63692 21.43332 0 0 -5.834777 5.328717 11.08108 5.751421
-439.493 100.616 3039.675 -2.137512 -5.790294 -27.69403 2.424049 18.77284 2.539371 -0 16.54202 -0 -2.288558 -12.44434 -0.4634164 1.252351 -25.16223 -3.947942 -0 16.94734 -0 -3.611427 -6.471599 19.2155 -2.33846 0.2438466 6.200342 0.009182372 10.14889 -3.300206 1.766714 23.16098 4.739942 2.712072 -16.99661 5.894141 3.691361 -19.08427 11.63994 79.35969 29.85018 -4.267796 -0 0 18.09947 -21.27515 10.1732 14.15282 4.099986 -16.41781 -2.764476 -92.13159 18.58374 22.23786 0 0 -4.809692 5.132897 11.13858 5.919235
-441.6589 100.0211 3046.299 -2.027153 -5.89173 -27.94274 1.659884 19.49262 2.553959 -0 22.57427 -0 -2.315223 -9.119789 -0.3083861 0.1663957 -23.61581 -5.010027 -0 15.5947 -0 -3.603892 -6.549238 19.39943 -2.34632 0.270535 6.29385 -0.1029923 10.11395 -3.103537 1.787462 23.24081 4.716495 2.753619 -16.89569 5.856408 3.646215 -19.24342 11.62884 79.10217 29.65144 -3.711184 -0 0 18.46874 -21.43691 10.01043 14.27001 4.093678 -16.22304 -2.74339 -92.49157 18.50784 22.711 0 0 -4.055967 5.113025 11.2736 5.881729
-443.876 99.95535 3053.113 -2.090979 -6.37558 -27.99672 1.029355 18.88736 2.543785 -0 30.40415 -0 -2.600683 -4.846051 -0.410116 -1.216632 -20.89109 -6.214783 -0 16.3902 -0 -3.326056 -6.694154 19.53231 -2.361007 0.2987918 6.298782 -0.1706859 10.06102 -2.971559 1.822295 23.33002 4.712179 2.78582 -16.79698 5.873235 3.636086 -19.24517 11.61039 78.95097 29.63907 -3.364638 -0 0 18.55695 -21.50444 9.965734 14.30616 4.119598 -16.10436 -2.71585 -92.64525 18.42667 22.82826 0 0 -3.591969 5.259096 11.48013 5.650512
